<?xml version="1.0" standalone="no"?>
<!DOCTYPE svg PUBLIC "-//W3C//DTD SVG 20010904//EN"
 "http://www.w3.org/TR/2001/REC-SVG-20010904/DTD/svg10.dtd">
<svg version="1.0" xmlns="http://www.w3.org/2000/svg"
 width="1735.000000pt" height="1735.000000pt" viewBox="0 0 1735.000000 1735.000000"
 preserveAspectRatio="xMidYMid meet">

<g transform="translate(0.000000,1735.000000) scale(0.100000,-0.100000)"
fill="#000000" stroke="none">
<path d="M8255 16119 c-1457 -100 -2836 -611 -3990 -1479 -93 -70 -222 -171
-285 -224 l-115 -95 -902 -1 -903 0 0 -1160 0 -1160 -54 -108 c-113 -226 -249
-555 -339 -822 -344 -1016 -466 -2084 -361 -3170 72 -754 280 -1547 590 -2255
80 -183 287 -590 390 -765 498 -851 1184 -1620 1969 -2210 1046 -784 2242
-1272 3535 -1440 351 -46 498 -54 960 -54 477 0 614 8 1005 60 628 84 1278
260 1880 509 201 83 631 296 837 414 374 215 750 478 1085 758 133 111 508
457 547 504 16 19 61 68 100 109 343 356 732 875 1002 1335 97 167 297 553
370 715 26 58 82 191 124 295 l77 190 435 5 435 5 37 29 c50 38 80 104 74 165
-4 40 -46 116 -280 501 -397 658 -359 586 -347 645 18 95 58 410 76 595 22
234 25 994 5 1220 -61 684 -176 1236 -386 1855 -138 410 -324 823 -554 1235
-564 1010 -1394 1905 -2372 2557 -1106 737 -2322 1148 -3680 1243 -169 11
-790 11 -965 -1z m-1090 -2178 c362 -56 683 -178 964 -365 404 -270 715 -679
864 -1133 76 -234 87 -305 87 -582 0 -280 -14 -410 -66 -620 -99 -400 -292
-737 -605 -1056 -44 -44 -79 -84 -79 -88 0 -4 48 -58 108 -120 340 -355 529
-723 614 -1194 20 -111 23 -160 22 -373 0 -261 -9 -343 -60 -545 -134 -533
-462 -991 -926 -1296 -251 -164 -512 -268 -833 -331 l-110 -22 -2357 -3 -2358
-3 0 1607 0 1608 820 -820 820 -820 0 -92 0 -93 1238 0 c1335 0 1297 -1 1432
53 105 43 172 89 270 187 108 108 163 199 202 335 19 67 23 103 23 220 -1 160
-14 221 -74 350 -99 209 -300 370 -531 425 -83 19 -116 20 -1310 20 l-1225 0
-832 832 -833 833 0 1553 0 1553 2328 -4 c1785 -2 2346 -6 2407 -16z m4810
-448 c76 -126 278 -460 450 -743 172 -283 448 -740 615 -1015 166 -275 405
-669 530 -875 125 -206 370 -611 545 -900 175 -289 434 -716 575 -950 142
-234 394 -650 560 -925 167 -275 405 -669 530 -875 125 -206 276 -456 337
-555 60 -99 115 -190 122 -202 l12 -23 -898 0 -898 0 -259 433 c-143 237 -264
435 -270 439 -6 4 -570 8 -1253 8 -684 0 -1243 4 -1243 9 0 7 236 421 525 921
l72 125 634 -4 633 -4 -21 34 c-11 19 -165 275 -343 569 -178 294 -421 697
-540 895 -119 198 -361 599 -537 890 -176 292 -454 752 -617 1023 l-298 493
50 82 c57 96 533 880 712 1175 68 111 127 202 130 202 4 0 70 -102 145 -227z
m-1233 -2808 c196 -324 390 -646 432 -714 42 -69 76 -131 76 -137 0 -11 -259
-441 -835 -1384 -214 -352 -453 -744 -805 -1325 -130 -214 -277 -454 -326
-533 l-89 -144 -323 -1 c-177 -1 -322 -1 -322 0 0 1 57 57 126 125 226 221
369 418 510 703 138 280 224 580 255 889 17 170 7 496 -20 655 -35 205 -89
396 -159 567 l-30 71 31 49 c28 45 223 365 812 1334 122 201 237 389 255 418
29 48 34 51 45 35 6 -10 172 -283 367 -608z m-5330 -5299 c146 -26 263 -115
309 -234 31 -80 32 -217 2 -284 -26 -56 -89 -127 -138 -154 -19 -10 -35 -21
-35 -24 0 -3 21 -14 46 -24 25 -10 70 -42 98 -70 174 -170 119 -508 -100 -619
-113 -57 -144 -59 -716 -64 -498 -4 -528 -4 -535 13 -4 12 0 21 12 28 10 6 27
19 37 29 17 16 18 49 18 675 0 615 -1 660 -17 674 -10 8 -26 18 -35 21 -10 4
-18 16 -18 27 0 20 4 20 498 20 375 -1 516 -4 574 -14z m3748 -5 c0 -10 -11
-26 -25 -35 -14 -9 -25 -25 -25 -35 0 -10 41 -105 91 -212 50 -107 174 -373
275 -591 248 -536 237 -517 285 -537 29 -12 39 -22 39 -39 l0 -22 -172 2
c-152 3 -173 5 -176 20 -2 10 8 22 25 30 16 7 29 23 31 36 2 12 -29 94 -70
182 l-72 160 -393 0 -393 0 -43 -87 c-24 -49 -61 -125 -81 -171 -41 -90 -39
-104 12 -123 15 -6 22 -16 20 -27 -3 -15 -19 -17 -168 -17 -147 0 -165 2 -168
17 -2 12 8 22 31 31 19 8 43 28 55 44 11 16 92 184 180 373 88 190 219 470
291 624 72 153 134 289 137 301 4 18 -1 28 -20 40 -14 10 -26 26 -26 36 0 18
10 19 180 19 170 0 180 -1 180 -19z m4700 -306 c0 -118 -1 -125 -20 -125 -11
0 -20 6 -20 13 0 8 -9 22 -21 33 -20 18 -42 19 -413 19 l-391 0 -3 -207 -2
-208 247 0 c263 0 289 4 308 48 5 12 18 22 27 22 16 0 18 -12 18 -125 0 -118
-1 -125 -20 -125 -11 0 -20 5 -20 12 0 6 -7 20 -17 30 -15 17 -37 18 -280 18
l-263 0 0 -225 0 -225 384 0 c227 0 395 4 410 10 15 5 31 21 38 35 6 14 19 25
30 25 16 0 18 -10 18 -125 0 -112 -2 -125 -17 -125 -10 0 -26 14 -35 30 l-17
30 -516 0 c-474 0 -516 1 -522 17 -4 11 0 21 12 27 10 6 27 19 37 29 17 16 18
45 18 541 0 564 2 545 -50 561 -11 3 -20 15 -20 26 0 19 13 19 488 20 268 0
498 3 511 5 29 5 61 32 61 51 0 7 9 13 20 13 19 0 20 -7 20 -125z m-6295 60
c116 -32 224 -93 305 -175 123 -122 180 -262 180 -439 0 -173 -58 -311 -184
-437 -97 -97 -180 -142 -321 -174 -83 -20 -114 -22 -262 -18 -137 4 -181 9
-238 28 -238 76 -404 248 -450 465 -45 214 14 423 160 571 100 101 204 155
365 189 88 19 361 13 445 -10z m-1215 -19 c0 -8 -15 -23 -33 -34 -26 -15 -35
-28 -40 -58 -4 -22 -7 -246 -7 -499 0 -253 3 -477 7 -499 5 -30 14 -43 40 -59
21 -12 33 -26 31 -36 -3 -14 -22 -16 -148 -16 -143 0 -145 0 -148 23 -2 14 2
22 12 22 8 0 24 12 35 26 21 26 21 36 21 541 l0 514 -25 24 c-13 14 -29 25
-35 25 -5 0 -10 9 -10 20 0 19 7 20 150 20 122 0 150 -3 150 -14z m4508 -1
c80 -19 127 -44 176 -92 63 -62 81 -112 81 -223 0 -87 -3 -100 -30 -149 -16
-29 -49 -69 -74 -87 -44 -34 -151 -74 -196 -74 -13 0 -26 -4 -29 -9 -3 -5 65
-121 153 -257 139 -220 162 -250 192 -260 22 -8 34 -18 34 -30 0 -18 -11 -19
-148 -22 -131 -2 -148 -1 -154 15 -4 11 1 21 15 31 12 8 22 21 22 29 0 13
-270 445 -295 471 -9 11 -61 13 -226 13 l-214 0 -3 -236 c-3 -254 -4 -248 53
-281 12 -6 16 -16 12 -27 -6 -15 -24 -17 -147 -17 -123 0 -141 2 -147 17 -4
11 0 21 12 27 10 6 27 19 37 29 17 16 18 43 16 544 l-3 528 -32 20 c-18 11
-32 28 -33 38 0 16 27 17 433 17 346 0 444 -3 495 -15z m792 -3 c0 -11 -11
-24 -25 -30 -14 -7 -30 -23 -35 -38 -10 -26 -14 -504 -4 -504 16 0 655 497
660 514 4 12 0 24 -10 31 -9 7 -16 20 -16 29 0 14 19 16 170 16 158 0 170 -1
170 -18 0 -13 -12 -22 -39 -31 -29 -8 -389 -270 -559 -406 -1 -1 125 -160 280
-354 224 -280 288 -353 310 -358 21 -4 28 -11 28 -29 l0 -24 -160 0 -160 0 0
24 c0 16 7 26 21 29 14 4 20 12 17 26 -2 11 -102 145 -223 297 -121 153 -223
282 -226 287 -4 5 -66 -35 -138 -89 l-131 -99 0 -180 c0 -192 6 -222 48 -240
15 -6 22 -17 20 -30 -3 -19 -12 -20 -128 -23 -69 -1 -135 0 -147 3 -33 8 -28
30 12 54 l35 20 0 536 0 536 -35 20 c-19 12 -35 27 -35 35 0 11 28 14 150 14
139 0 150 -1 150 -18z"/>
<path d="M4064 12050 l8 -481 321 -320 321 -320 930 3 c1035 4 968 -1 1123 73
219 103 368 278 435 512 30 104 32 314 4 413 -46 162 -151 325 -268 417 -135
106 -260 156 -434 173 -68 6 -548 10 -1278 10 l-1169 0 7 -480z"/>
<path d="M4580 5010 l0 -251 388 3 c340 4 394 6 444 22 118 38 174 119 166
240 -6 104 -67 175 -182 213 -43 14 -109 17 -433 21 l-383 3 0 -251z"/>
<path d="M4582 4338 l3 -283 390 0 c375 0 393 1 461 22 48 16 82 34 107 58 61
59 72 88 72 190 0 77 -4 98 -26 140 -30 59 -90 108 -162 132 -45 14 -109 17
-450 21 l-397 4 2 -284z"/>
<path d="M8804 4837 c-89 -194 -160 -355 -157 -360 6 -9 641 -9 647 1 2 4 -44
111 -103 238 -59 127 -132 286 -162 352 -29 67 -56 122 -59 122 -3 0 -78 -159
-166 -353z"/>
<path d="M7165 5020 c-195 -39 -355 -186 -405 -370 -19 -69 -15 -205 8 -277
51 -162 193 -291 372 -339 88 -23 262 -23 349 0 155 42 294 153 351 280 53
116 59 262 15 386 -52 148 -202 274 -376 315 -68 16 -245 19 -314 5z"/>
<path d="M10168 5015 c-5 -5 -8 -102 -8 -217 l0 -208 268 0 c386 1 463 16 515
100 28 45 31 158 4 207 -24 44 -79 84 -140 100 -58 16 -626 31 -639 18z"/>
</g>
</svg>
